<svg width="69" height="66" viewBox="0 0 69 66" fill="none" xmlns="http://www.w3.org/2000/svg">
<rect x="37.5815" y="9.96425" width="25.4477" height="35.4287" rx="2" transform="rotate(43.8999 37.5815 9.96425)" fill="black" stroke="black" stroke-width="2"/>
<rect x="12.6019" y="28.1706" width="25.4477" height="35.4287" rx="2" transform="rotate(-46.1001 12.6019 28.1706)" fill="#FFC700" stroke="black" stroke-width="2"/>
<path d="M29.0357 31.7268L28.1986 31.1798L29.0357 31.7268C29.3567 31.2356 29.4458 30.6283 29.2794 30.0656L27.8315 25.1699L32.7792 26.4288C33.3478 26.5734 33.9513 26.4611 34.4298 26.1215L38.6365 23.136L38.8465 28.1842C38.8715 28.7857 39.1662 29.344 39.6488 29.704L43.6715 32.7056L38.8466 34.6214C38.3098 34.8346 37.8913 35.2694 37.6989 35.814L35.9697 40.7089L32.816 36.8044C32.4377 36.336 31.8685 36.063 31.2665 36.0611L26.214 36.0451L29.0357 31.7268Z" fill="black" stroke="black" stroke-width="2"/>
</svg>
